<?xml version="1.0" encoding="utf-8"?>
<!-- Generator: Adobe Illustrator 19.1.0, SVG Export Plug-In . SVG Version: 6.00 Build 0)  -->
<svg version="1.1" id="Layer_1" xmlns="http://www.w3.org/2000/svg" xmlns:xlink="http://www.w3.org/1999/xlink" x="0px" y="0px"
	 viewBox="0 0 612 50" enable-background="new 0 0 612 50" xml:space="preserve">
<rect x="581.9" y="29.1" fill="#005B8E" width="1.6" height="9"/>
<polyline fill="#005B8E" points="532.5,29.1 530.7,29.1 534.3,34.3 534.3,38.1 535.9,38.1 535.9,34.3 539.4,29.1 537.7,29.1 
	535.1,32.9 532.5,29.1 "/>
<path fill="#005B8E" d="M580,31.8h-1.5c0-0.2,0-0.3,0-0.5c-0.1-0.3-0.2-0.5-0.4-0.7c-0.3-0.3-0.8-0.4-1.2-0.5c-0.4,0-0.8,0-1.2,0.2
	c-0.3,0.1-0.5,0.3-0.6,0.6c-0.1,0.2-0.1,0.5,0,0.7c0.1,0.2,0.2,0.3,0.3,0.5c0.3,0.2,0.6,0.3,0.9,0.4c0.3,0.1,0.6,0.1,0.8,0.2
	c0.3,0.1,0.7,0.1,1,0.2c0.3,0.1,0.6,0.2,0.9,0.3c0.4,0.2,0.7,0.4,0.9,0.8c0.3,0.4,0.5,0.9,0.5,1.3c0,0.6-0.2,1.2-0.6,1.7
	c-0.3,0.4-0.7,0.7-1.2,0.9c-0.5,0.2-1.1,0.3-1.6,0.4c-0.6,0-1.2-0.1-1.7-0.3c-0.4-0.2-0.9-0.4-1.2-0.7c-0.3-0.3-0.5-0.6-0.7-1
	c-0.2-0.4-0.2-0.8-0.2-1.3h1.5c0,0.4,0.1,0.9,0.4,1.2c0.3,0.3,0.6,0.5,1,0.6c0.3,0.1,0.6,0.1,0.9,0.1c0.4,0,0.8-0.1,1.1-0.3
	c0.3-0.2,0.5-0.4,0.6-0.7c0.1-0.3,0.1-0.8-0.1-1.1c-0.2-0.3-0.7-0.5-1.1-0.6c-0.4-0.1-0.8-0.2-1.2-0.2c-0.4-0.1-0.7-0.2-1.1-0.3
	c-0.5-0.2-1-0.4-1.3-0.8c-0.3-0.4-0.5-0.8-0.6-1.3c0-0.6,0.1-1.1,0.4-1.6c0.3-0.5,0.8-0.8,1.3-1c0.6-0.2,1.2-0.2,1.8-0.2
	c0.5,0,0.9,0.1,1.4,0.3c0.5,0.2,0.9,0.5,1.2,0.9C579.9,30.6,580,31.2,580,31.8"/>
<path fill="#005B8E" d="M591.9,31.8h-1.5c0-0.2,0-0.3,0-0.5c-0.1-0.3-0.2-0.5-0.4-0.7c-0.3-0.3-0.8-0.4-1.2-0.5
	c-0.4,0-0.8,0-1.2,0.2c-0.3,0.1-0.5,0.3-0.6,0.6c-0.1,0.2-0.1,0.5,0,0.7c0.1,0.2,0.2,0.3,0.3,0.5c0.3,0.2,0.6,0.3,0.9,0.4
	c0.3,0.1,0.6,0.1,0.8,0.2c0.3,0.1,0.7,0.1,1,0.2c0.3,0.1,0.6,0.2,0.8,0.3c0.4,0.2,0.7,0.4,0.9,0.8c0.3,0.4,0.5,0.9,0.5,1.3
	c0,0.6-0.2,1.2-0.6,1.7c-0.3,0.4-0.7,0.7-1.2,0.9c-0.5,0.2-1.1,0.3-1.6,0.4c-0.6,0-1.2-0.1-1.7-0.3c-0.4-0.2-0.9-0.4-1.2-0.7
	c-0.3-0.3-0.5-0.6-0.7-1c-0.2-0.4-0.2-0.8-0.2-1.3h1.5c0,0.4,0.1,0.9,0.4,1.2c0.3,0.3,0.6,0.5,1,0.6c0.3,0.1,0.6,0.1,0.9,0.1
	c0.4,0,0.8-0.1,1.2-0.3c0.3-0.2,0.5-0.4,0.6-0.7c0.1-0.3,0.1-0.8-0.1-1.1c-0.2-0.3-0.7-0.5-1.1-0.6c-0.4-0.1-0.8-0.2-1.2-0.2
	c-0.4-0.1-0.7-0.2-1.1-0.3c-0.5-0.2-1-0.4-1.3-0.8c-0.3-0.4-0.5-0.8-0.6-1.3c0-0.6,0.1-1.1,0.4-1.6c0.3-0.5,0.8-0.8,1.3-1
	c0.6-0.2,1.2-0.2,1.8-0.2c0.5,0,0.9,0.1,1.4,0.3c0.5,0.2,0.9,0.5,1.2,0.9C591.7,30.6,591.9,31.2,591.9,31.8"/>
<path fill="#005B8E" d="M530.3,31.8h-1.5c0-0.2,0-0.3,0-0.5c-0.1-0.3-0.2-0.5-0.4-0.7c-0.3-0.3-0.8-0.4-1.2-0.5
	c-0.4,0-0.8,0-1.2,0.2c-0.3,0.1-0.5,0.3-0.6,0.6c-0.1,0.2-0.1,0.5,0,0.7c0.1,0.2,0.2,0.3,0.3,0.5c0.3,0.2,0.6,0.3,0.9,0.4
	c0.3,0.1,0.6,0.1,0.8,0.2c0.3,0.1,0.7,0.1,1,0.2c0.3,0.1,0.6,0.2,0.9,0.3c0.4,0.2,0.7,0.4,0.9,0.8c0.3,0.4,0.5,0.9,0.5,1.3
	c0,0.6-0.2,1.2-0.6,1.7c-0.3,0.4-0.7,0.7-1.2,0.9c-0.5,0.2-1.1,0.3-1.6,0.4c-0.6,0-1.2-0.1-1.7-0.3c-0.4-0.2-0.9-0.4-1.2-0.7
	c-0.3-0.3-0.5-0.6-0.7-1c-0.2-0.4-0.2-0.8-0.2-1.3h1.5c0,0.4,0.1,0.9,0.4,1.2c0.3,0.3,0.6,0.5,1,0.6c0.3,0.1,0.6,0.1,0.9,0.1
	c0.4,0,0.8-0.1,1.2-0.3c0.3-0.2,0.5-0.4,0.6-0.7c0.1-0.3,0.1-0.8-0.1-1.1c-0.2-0.3-0.7-0.5-1.1-0.6c-0.4-0.1-0.8-0.2-1.2-0.2
	c-0.4-0.1-0.7-0.2-1.1-0.3c-0.5-0.2-1-0.4-1.3-0.8c-0.3-0.4-0.5-0.8-0.6-1.3c-0.1-0.6,0.1-1.1,0.4-1.6c0.3-0.5,0.8-0.8,1.3-1
	c0.6-0.2,1.2-0.2,1.8-0.2c0.5,0,0.9,0.1,1.4,0.3c0.5,0.2,0.9,0.5,1.2,0.9C530.2,30.6,530.3,31.2,530.3,31.8"/>
<polyline fill="#005B8E" points="558.1,38.1 558.1,34.1 562.2,34.1 562.2,38.1 563.8,38.1 563.8,29.1 562.2,29.1 562.2,32.8 
	558.1,32.8 558.1,29.1 556.6,29.1 556.6,38.1 558.1,38.1 "/>
<polyline fill="#005B8E" points="503.5,29.1 503.5,30.4 498.9,30.4 498.9,32.8 502.7,32.8 502.7,34.1 498.9,34.1 498.9,38.1 
	497.4,38.1 497.4,29.1 503.5,29.1 "/>
<polyline fill="#005B8E" points="506.7,29.1 504.6,29.1 504.6,38.1 506.2,38.1 506.2,31.6 508.7,38.1 509.9,38.1 512.5,31.6 
	512.5,38.1 514,38.1 514,29.1 512,29.1 509.3,35.8 506.7,29.1 "/>
<polyline fill="#005B8E" points="555.7,29.1 555.7,30.4 552.8,30.4 552.8,38.1 551.2,38.1 551.2,30.4 548.2,30.4 548.2,29.1 
	555.7,29.1 "/>
<polyline fill="#005B8E" points="572,29.1 565.5,29.1 565.5,38.1 572.2,38.1 572.2,36.7 567.1,36.7 567.1,34.1 571.5,34.1 
	571.5,32.8 567.1,32.8 567.1,30.4 572,30.4 572,29.1 "/>
<polyline fill="#005B8E" points="541.6,38.1 540.1,38.1 540.1,29.1 541.9,29.1 545.8,35.7 545.8,29.1 547.4,29.1 547.4,38.1 
	545.6,38.1 541.6,31.6 541.6,38.1 "/>
<rect x="353.4" y="16.1" fill="#005B8E" width="7.9" height="7.9"/>
<path fill="#005B8E" d="M450.9,24.6l0.9-2.5h3.4l0.9,2.5h1.8l-3.5-9h-1.7l-3.5,9H450.9 M452.3,20.8l1.2-3.2l1.2,3.2H452.3z"/>
<path fill="#005B8E" d="M445.8,17h-3.1v2.7h2.8c0.4,0,0.8-0.1,1-0.4c0.2-0.2,0.4-0.6,0.4-1c0-0.3,0-0.7-0.3-0.9
	C446.4,17.1,446.1,17,445.8,17 M442.7,24.6h-1.6v-9h4.7c0.4,0,0.9,0.1,1.3,0.2c0.4,0.2,0.8,0.6,1.1,1c0.2,0.3,0.3,0.7,0.3,1.1
	c0,0.4-0.1,0.8-0.2,1.1c-0.1,0.3-0.4,0.6-0.6,0.8c-0.2,0.1-0.4,0.3-0.6,0.3c0.2,0.1,0.5,0.2,0.7,0.4c0.2,0.2,0.3,0.6,0.4,0.9
	c0.1,0.4,0.1,0.8,0.1,1.2c0,0.3,0,0.6,0.1,0.9c0.1,0.3,0.2,0.6,0.3,0.9h-1.7c-0.1-0.3-0.1-0.7-0.1-1c0-0.3-0.1-0.7-0.1-1
	c-0.1-0.5-0.1-1-0.4-1.3c-0.2-0.2-0.6-0.3-0.9-0.3h-2.6V24.6"/>
<path fill="#005B8E" d="M479.1,17H476v2.7h2.8c0.4,0,0.8-0.1,1-0.4c0.2-0.2,0.4-0.6,0.4-1c0-0.3,0-0.7-0.3-0.9
	C479.7,17.1,479.4,17,479.1,17 M476,24.6h-1.6v-9h4.7c0.4,0,0.9,0.1,1.3,0.2c0.4,0.2,0.8,0.6,1.1,1c0.2,0.3,0.3,0.7,0.3,1.1
	c0,0.4-0.1,0.8-0.2,1.1c-0.1,0.3-0.4,0.6-0.6,0.8c-0.2,0.1-0.4,0.3-0.6,0.3c0.2,0.1,0.5,0.2,0.7,0.4c0.2,0.2,0.3,0.6,0.4,0.9
	c0.1,0.4,0.1,0.8,0.1,1.2c0,0.3,0,0.6,0.1,0.9c0.1,0.3,0.2,0.6,0.3,0.9h-1.7c-0.1-0.3-0.1-0.7-0.1-1c0-0.3-0.1-0.7-0.1-1
	c-0.1-0.5-0.1-1-0.4-1.3c-0.2-0.2-0.6-0.3-0.9-0.3H476V24.6"/>
<path fill="#005B8E" d="M379.3,17.2c-0.4-0.3-1-0.5-1.5-0.5c-0.5,0-1.1,0.2-1.5,0.5c-0.5,0.3-0.8,0.9-1,1.4c-0.2,0.5-0.2,1-0.2,1.5
	c0,0.5,0.1,1,0.2,1.5c0.2,0.6,0.5,1.1,1,1.4c0.4,0.3,1,0.5,1.5,0.5c0.5,0,1.1-0.2,1.5-0.5c0.5-0.3,0.8-0.9,1-1.4
	c0.2-0.5,0.2-1,0.2-1.5c0-0.5-0.1-1-0.2-1.5C380.1,18.1,379.8,17.6,379.3,17.2 M381.5,17.6c0.8,1.5,0.8,3.5,0,5
	c-0.4,0.8-1.1,1.4-1.8,1.8c-0.6,0.3-1.2,0.4-1.9,0.4c-0.7,0-1.3-0.1-1.9-0.4c-0.8-0.4-1.4-1-1.8-1.8c-0.4-0.8-0.6-1.6-0.6-2.5
	c0-0.9,0.2-1.7,0.6-2.5c0.4-0.8,1.1-1.4,1.8-1.8c0.6-0.3,1.2-0.4,1.9-0.4c0.6,0,1.3,0.1,1.9,0.4C380.4,16.2,381.1,16.8,381.5,17.6z"
	/>
<path fill="#005B8E" d="M470.3,17.2c-0.4-0.3-1-0.5-1.5-0.5c-0.5,0-1.1,0.2-1.5,0.5c-0.5,0.3-0.8,0.9-1,1.4c-0.2,0.5-0.2,1-0.2,1.5
	c0,0.5,0.1,1,0.2,1.5c0.2,0.6,0.5,1.1,1,1.4c0.4,0.3,1,0.5,1.5,0.5c0.6,0,1.1-0.2,1.5-0.5c0.5-0.3,0.8-0.9,1-1.4
	c0.2-0.5,0.2-1,0.2-1.5c0-0.5-0.1-1-0.2-1.5C471.1,18.1,470.8,17.6,470.3,17.2 M472.5,17.6c0.8,1.5,0.8,3.5,0,5
	c-0.4,0.8-1.1,1.4-1.8,1.8c-0.6,0.3-1.2,0.4-1.9,0.4c-0.7,0-1.3-0.1-1.9-0.4c-0.8-0.4-1.4-1-1.8-1.8c-0.4-0.8-0.6-1.6-0.6-2.5
	c0-0.9,0.2-1.7,0.6-2.5c0.4-0.8,1.1-1.4,1.8-1.8c0.6-0.3,1.2-0.4,1.9-0.4c0.6,0,1.3,0.1,1.9,0.4C471.4,16.2,472.1,16.8,472.5,17.6z"
	/>
<polyline fill="#005B8E" points="373.2,15.6 373.2,17 370.3,17 370.3,24.6 368.7,24.6 368.7,17 365.8,17 365.8,15.6 373.2,15.6 "/>
<polyline fill="#005B8E" points="464.3,15.6 464.3,17 461.3,17 461.3,24.6 459.7,24.6 459.7,17 456.8,17 456.8,15.6 464.3,15.6 "/>
<path fill="#005B8E" d="M414.3,18.3h-1.6c-0.1-0.3-0.2-0.7-0.5-1c-0.3-0.4-0.9-0.6-1.4-0.6c-0.5-0.1-1,0-1.5,0.2
	c-0.5,0.2-0.9,0.6-1.2,1.1c-0.3,0.6-0.5,1.3-0.5,1.9c0,0.4,0,0.8,0.1,1.2c0.1,0.4,0.2,0.8,0.4,1.1c0.2,0.4,0.6,0.7,1,0.9
	c0.4,0.2,0.8,0.3,1.2,0.3c0.5,0,0.9-0.1,1.3-0.3c0.3-0.2,0.6-0.5,0.8-0.8c0.2-0.4,0.3-0.9,0.3-1.4h-2.4v-1.3h3.9v5h-1.2l-0.3-1
	c-0.2,0.3-0.5,0.6-0.8,0.8c-0.5,0.3-1.2,0.5-1.8,0.5c-1,0-1.9-0.3-2.6-0.9c-0.3-0.3-0.6-0.6-0.9-1c-0.3-0.5-0.5-1-0.7-1.6
	c-0.1-0.5-0.1-0.9-0.1-1.4c0-0.5,0.1-0.9,0.2-1.4c0.1-0.4,0.3-0.8,0.5-1.2c0.3-0.4,0.6-0.8,1-1.1c0.4-0.3,0.8-0.5,1.2-0.6
	c0.6-0.2,1.2-0.3,1.9-0.2c0.7,0.1,1.5,0.3,2,0.7c0.3,0.2,0.6,0.5,0.8,0.8C414.1,17.4,414.2,17.8,414.3,18.3"/>
<polyline fill="#005B8E" points="398.9,15.6 392.5,15.6 392.5,24.6 399.1,24.6 399.1,23.3 394,23.3 394,20.6 398.4,20.6 398.4,19.3 
	394,19.3 394,17 398.9,17 398.9,15.6 "/>
<polyline fill="#005B8E" points="439.6,15.6 433.2,15.6 433.2,24.6 439.8,24.6 439.8,23.3 434.7,23.3 434.7,20.6 439.1,20.6 
	439.1,19.3 434.7,19.3 434.7,17 439.6,17 439.6,15.6 "/>
<polyline fill="#005B8E" points="422.6,15.6 416.1,15.6 416.1,24.6 422.7,24.6 422.7,23.3 417.7,23.3 417.7,20.6 422.1,20.6 
	422.1,19.3 417.7,19.3 417.7,17 422.6,17 422.6,15.6 "/>
<polyline fill="#005B8E" points="384.9,24.6 383.4,24.6 383.4,15.6 385.2,15.6 389.1,22.2 389.1,15.6 390.7,15.6 390.7,24.6 
	388.9,24.6 384.9,18.1 384.9,24.6 "/>
<polyline fill="#005B8E" points="425.6,24.6 424,24.6 424,15.6 425.8,15.6 429.8,22.2 429.8,15.6 431.4,15.6 431.4,24.6 429.5,24.6 
	425.6,18.1 425.6,24.6 "/>
<rect x="353.4" y="29.6" fill="#005B8E" width="7.9" height="7.9"/>
<polyline fill="#005B8E" points="494.8,29.1 489.6,38.1 488.4,38.1 493.6,29.1 494.8,29.1 "/>
<rect x="465.1" y="29.1" fill="#005B8E" width="1.6" height="9"/>
<path fill="#005B8E" d="M437.5,31.8H436c0-0.2,0-0.3,0-0.5c-0.1-0.3-0.2-0.5-0.4-0.7c-0.3-0.3-0.8-0.4-1.2-0.5c-0.4,0-0.8,0-1.2,0.2
	c-0.3,0.1-0.5,0.3-0.6,0.6c-0.1,0.2-0.1,0.5,0,0.7c0.1,0.2,0.2,0.3,0.3,0.5c0.3,0.2,0.6,0.3,0.9,0.4c0.3,0.1,0.6,0.1,0.8,0.2
	c0.3,0.1,0.7,0.1,1,0.2c0.3,0.1,0.6,0.2,0.8,0.3c0.4,0.2,0.7,0.4,0.9,0.8c0.3,0.4,0.5,0.9,0.5,1.3c0,0.6-0.2,1.2-0.6,1.7
	c-0.3,0.4-0.7,0.7-1.2,0.9c-0.5,0.2-1.1,0.3-1.6,0.4c-0.6,0-1.2-0.1-1.7-0.3c-0.4-0.2-0.9-0.4-1.2-0.7c-0.3-0.3-0.5-0.6-0.7-1
	c-0.2-0.4-0.2-0.8-0.2-1.3h1.5c0,0.4,0.1,0.9,0.4,1.2c0.3,0.3,0.6,0.5,1,0.6c0.3,0.1,0.6,0.1,0.9,0.1c0.4,0,0.8-0.1,1.2-0.3
	c0.3-0.2,0.5-0.4,0.6-0.7c0.1-0.3,0.1-0.8-0.1-1.1c-0.2-0.3-0.7-0.5-1.1-0.6c-0.4-0.1-0.8-0.2-1.2-0.2c-0.4-0.1-0.7-0.2-1.1-0.3
	c-0.5-0.2-1-0.4-1.3-0.8c-0.3-0.4-0.5-0.8-0.6-1.3c0-0.6,0.1-1.1,0.4-1.6c0.3-0.5,0.8-0.8,1.3-1c0.6-0.2,1.2-0.2,1.8-0.2
	c0.5,0,0.9,0.1,1.4,0.3c0.5,0.2,0.9,0.5,1.2,0.9C437.4,30.6,437.5,31.2,437.5,31.8"/>
<path fill="#005B8E" d="M461,29.1h-4.2v9h1.6v-3.6h2.3c0.7,0,1.5-0.2,2.1-0.6c0.6-0.5,0.9-1.3,0.9-2.1c0-0.8-0.3-1.6-0.9-2.1
	C462.3,29.3,461.6,29.1,461,29.1 M461.9,30.9c0.2,0.2,0.2,0.6,0.2,0.9c0,0.3,0,0.7-0.2,0.9c-0.2,0.3-0.7,0.4-1,0.5h-2.4v-2.7h2.4
	C461.2,30.4,461.6,30.6,461.9,30.9z"/>
<polyline fill="#005B8E" points="440.8,38.1 440.8,34.1 444.8,34.1 444.8,38.1 446.4,38.1 446.4,29.1 444.8,29.1 444.8,32.8 
	440.8,32.8 440.8,29.1 439.2,29.1 439.2,38.1 440.8,38.1 "/>
<path fill="#005B8E" d="M449,38.1l0.9-2.5h3.3l0.9,2.5h1.8l-3.5-9h-1.7l-3.5,9H449 M450.4,34.3l1.2-3.2l1.2,3.2H450.4z"/>
<path fill="#005B8E" d="M403.6,38.1l0.9-2.5h3.3l0.9,2.5h1.8l-3.5-9h-1.7l-3.5,9H403.6 M405,34.3l1.2-3.2l1.2,3.2H405z"/>
<path fill="#005B8E" d="M387.1,30.4H384v2.7h2.8c0.4,0,0.8-0.1,1-0.4c0.2-0.2,0.4-0.6,0.4-1c0-0.3,0-0.7-0.3-0.9
	C387.7,30.6,387.4,30.4,387.1,30.4 M384,38.1h-1.6v-9h4.7c0.4,0,0.9,0.1,1.3,0.2c0.4,0.2,0.8,0.6,1.1,1c0.2,0.3,0.3,0.7,0.3,1.1
	c0,0.4-0.1,0.8-0.2,1.1c-0.1,0.3-0.4,0.6-0.6,0.8c-0.2,0.1-0.4,0.3-0.6,0.3c0.2,0.1,0.5,0.2,0.7,0.4c0.2,0.2,0.3,0.6,0.4,0.9
	c0.1,0.4,0.1,0.8,0.1,1.2c0,0.3,0,0.6,0.1,0.9c0.1,0.3,0.1,0.6,0.3,0.9h-1.7c-0.1-0.3-0.1-0.7-0.1-1c0-0.3-0.1-0.7-0.1-1
	c-0.1-0.5-0.1-1-0.4-1.3c-0.2-0.2-0.6-0.3-0.9-0.3H384V38.1"/>
<polyline fill="#005B8E" points="371.9,29.1 371.9,30.4 367.4,30.4 367.4,32.8 371.2,32.8 371.2,34.1 367.4,34.1 367.4,38.1 
	365.8,38.1 365.8,29.1 371.9,29.1 "/>
<polyline fill="#005B8E" points="393.5,29.1 391.5,29.1 391.5,38.1 393,38.1 393,31.6 395.6,38.1 396.8,38.1 399.4,31.6 399.4,38.1 
	400.9,38.1 400.9,29.1 398.9,29.1 396.2,35.8 393.5,29.1 "/>
<path fill="#005B8E" d="M378.3,30.7c-0.4-0.3-1-0.5-1.5-0.5c-0.5,0-1.1,0.2-1.5,0.5c-0.5,0.3-0.8,0.9-1,1.4c-0.2,0.5-0.2,1-0.2,1.5
	c0,0.5,0.1,1,0.2,1.5c0.2,0.6,0.5,1.1,1,1.4c0.4,0.3,1,0.5,1.5,0.5c0.6,0,1.1-0.2,1.5-0.5c0.5-0.3,0.8-0.9,1-1.4
	c0.2-0.5,0.2-1,0.2-1.5c0-0.5-0.1-1-0.2-1.5C379.2,31.6,378.8,31,378.3,30.7 M380.5,31.1c0.8,1.5,0.8,3.5,0,5
	c-0.4,0.8-1.1,1.4-1.8,1.8c-0.6,0.3-1.2,0.4-1.9,0.4c-0.7,0-1.3-0.1-1.9-0.4c-0.8-0.4-1.4-1-1.8-1.8c-0.4-0.8-0.6-1.6-0.6-2.5
	c0-0.9,0.2-1.7,0.6-2.5c0.4-0.8,1.1-1.4,1.8-1.8c0.6-0.3,1.2-0.4,1.9-0.4s1.3,0.1,1.9,0.4C379.5,29.7,380.1,30.3,380.5,31.1z"/>
<polyline fill="#005B8E" points="427,29.1 427,30.4 424.1,30.4 424.1,38.1 422.5,38.1 422.5,30.4 419.6,30.4 419.6,29.1 427,29.1 
	"/>
<path fill="#005B8E" d="M485.4,31.8h-1.6c-0.1-0.3-0.2-0.7-0.5-1c-0.3-0.4-0.9-0.6-1.4-0.6c-0.5-0.1-1,0-1.5,0.2
	c-0.5,0.2-0.9,0.6-1.2,1.1c-0.3,0.6-0.5,1.2-0.5,1.9c0,0.4,0,0.8,0.1,1.2c0.1,0.4,0.2,0.8,0.5,1.1c0.2,0.4,0.6,0.7,1,0.9
	c0.4,0.2,0.8,0.3,1.2,0.3c0.5,0,0.9-0.1,1.3-0.3c0.3-0.2,0.6-0.5,0.8-0.8c0.2-0.4,0.3-0.9,0.3-1.4h-2.4v-1.3h3.9v5h-1.2l-0.3-1
	c-0.2,0.3-0.5,0.6-0.8,0.8c-0.5,0.3-1.2,0.5-1.8,0.5c-1,0-1.9-0.3-2.6-0.9c-0.3-0.3-0.6-0.6-0.9-1c-0.3-0.5-0.5-1-0.7-1.6
	c-0.1-0.5-0.1-0.9-0.1-1.4c0-0.5,0.1-0.9,0.2-1.4c0.1-0.4,0.3-0.8,0.5-1.2c0.3-0.4,0.6-0.8,1-1.1c0.4-0.3,0.8-0.5,1.2-0.6
	c0.6-0.2,1.2-0.3,1.9-0.2c0.7,0.1,1.4,0.3,2,0.7c0.3,0.2,0.6,0.5,0.8,0.8C485.3,30.9,485.4,31.3,485.4,31.8"/>
<polyline fill="#005B8E" points="470.2,38.1 468.6,38.1 468.6,29.1 470.4,29.1 474.4,35.7 474.4,29.1 476,29.1 476,38.1 474.1,38.1 
	470.2,31.6 470.2,38.1 "/>
<polyline fill="#005B8E" points="413,38.1 411.4,38.1 411.4,29.1 413.2,29.1 417.1,35.7 417.1,29.1 418.7,29.1 418.7,38.1 
	416.9,38.1 413,31.6 413,38.1 "/>
<path fill="#005B8E" d="M315.8,16.8h-29.7v1.9h29.3c0.2,0,0.5,0.1,0.6,0.3c0.2,0.2,0.3,0.4,0.3,0.6v5.3c0,0.2-0.1,0.5-0.3,0.6
	c-0.2,0.2-0.4,0.3-0.6,0.3h-29.3v11h2.7v-9h15l10.1,9h3.8l-10.1-9h8.1c0.9,0,1.7-0.3,2.3-1s1-1.5,1-2.3V20c0-0.9-0.3-1.7-1-2.3
	C317.5,17.1,316.6,16.8,315.8,16.8 M318.9,16.8c0.8,0.8,1.3,2,1.3,3.2v4.4c0,1.2-0.5,2.3-1.3,3.2c-0.8,0.8-2,1.3-3.2,1.3h-4.9
	l10,9.1h-7.5L303.3,29H290V38h-5.2V24.6h30.2v-4.7h-30.2v-4.4h30.9C316.9,15.5,318.1,16,318.9,16.8z"/>
<path fill="#005B8E" d="M275.9,15.5h-4.3v4.4h2.9V38h5.8V20c0-1.2-0.5-2.3-1.3-3.2C278.2,16,277.1,15.5,275.9,15.5"/>
<path fill="#005B8E" d="M266.2,18.7v-1.9H238c-0.9,0-1.7,0.4-2.3,1c-0.6,0.6-1,1.5-1,2.3v4.4c0,0.9,0.4,1.7,1,2.3
	c0.6,0.6,1.4,1,2.3,1h25.4c0.2,0,0.5,0.1,0.6,0.3c0.2,0.2,0.3,0.4,0.3,0.6V34c0,0.2-0.1,0.5-0.3,0.6c-0.2,0.2-0.4,0.3-0.6,0.3h-28.7
	v1.9h29c0.9,0,1.7-0.3,2.3-1c0.6-0.6,1-1.5,1-2.3v-4.4c0-0.9-0.3-1.7-1-2.3c-0.6-0.6-1.5-1-2.3-1h-25.4c-0.2,0-0.5-0.1-0.6-0.3
	c-0.2-0.2-0.3-0.4-0.3-0.6v-5.3c0-0.2,0.1-0.5,0.3-0.6c0.2-0.2,0.4-0.3,0.6-0.3H266.2 M267.5,19.9h-28.8v4.7h25.1
	c1.2,0,2.3,0.5,3.2,1.3c0.8,0.8,1.3,2,1.3,3.2v4.4c0,1.2-0.5,2.3-1.3,3.2c-0.8,0.8-2,1.3-3.2,1.3h-30.2v-4.4h29.6V29H238
	c-1.2,0-2.3-0.5-3.2-1.3c-0.8-0.8-1.3-2-1.3-3.2V20c0-1.2,0.5-2.3,1.3-3.2c0.8-0.8,2-1.3,3.2-1.3h29.5V19.9z"/>
<path fill="#005B8E" d="M230.7,15.5H196V38h5.2V29h25.6v-4.4h-25.6v-4.7h29.6V15.5 M229.5,18.7h-29.6v7.1h25.6v1.9h-25.6v9h-2.7v-20
	h32.3V18.7z"/>
<path d="M42.2,40.9c8.3,0,15-6.7,15-15c0-8.3-6.7-15-15-15s-15,6.7-15,15C27.3,34.2,34,40.9,42.2,40.9 M26.6,26
	c0-8.6,7-15.6,15.6-15.6c8.6,0,15.6,7,15.6,15.6c0,8.6-7,15.6-15.6,15.6C33.6,41.6,26.6,34.6,26.6,26z"/>
<path d="M39.4,26.8l0.7,0.4V28l-1.8,1.1c-0.2,0.1-0.4,0.1-0.6,0.1c-0.2-0.1-0.4-0.2-0.5-0.3c-0.1-0.2-0.1-0.4-0.1-0.6
	c0-0.2,0.2-0.4,0.3-0.5L39.4,26.8 M44.4,27.2l0.7-0.4l1.8,1.1c0.2,0.1,0.3,0.3,0.3,0.5c0.1,0.2,0,0.4-0.1,0.6
	c-0.1,0.2-0.3,0.3-0.5,0.3c-0.2,0.1-0.4,0-0.6-0.1L44.4,28V27.2z M41.5,21c0-0.2,0.1-0.4,0.2-0.5c0.1-0.1,0.3-0.2,0.5-0.2
	c0.2,0,0.4,0.1,0.5,0.2c0.1,0.1,0.2,0.3,0.2,0.5v2.1l-0.7,0.4l-0.7-0.4V21z M42.2,25l0.9,0.5v1L42.2,27l-0.9-0.5v-1L42.2,25z
	 M40.9,16.9c0,0.1,0.1,0.1,0.1,0.2c0.2,0.1,0.3,0.3,0.4,0.5c0.1,0.2,0.1,0.5,0,0.7c-0.1,0.2-0.2,0.4-0.4,0.6c-0.3,0.3-0.6,0.6-0.8,1
	c-0.2,0.4-0.3,0.8-0.3,1.2v1.1l-5.5-3.2l-0.7,1.2l6.2,3.6v0.9l-0.7,0.4l-6.2-3.6l-0.7,1.2L38,26l-1,0.6c-0.4,0.2-0.7,0.5-0.9,0.8
	s-0.4,0.7-0.5,1.2c0,0.2-0.2,0.4-0.3,0.6c-0.2,0.2-0.4,0.3-0.6,0.3c-0.2,0-0.5,0-0.7-0.1c-0.1,0-0.2,0-0.2,0c-0.1,0-0.2,0.1-0.2,0.1
	L31.4,32c0,0,0,0.1-0.1,0.1c0,0.1,0,0.1,0,0.1c0,0,0.1,0.1,0.1,0.1c0,0,0.1,0,0.1,0l3.3-0.6c0.1,0,0.2-0.1,0.2-0.1
	c0.1-0.1,0.1-0.1,0.1-0.2c0-0.2,0.1-0.5,0.3-0.6c0.1-0.2,0.4-0.3,0.6-0.4c0.2-0.1,0.5-0.1,0.7,0c0.4,0.1,0.8,0.2,1.2,0.2
	c0.4,0,0.8-0.2,1.2-0.4l1-0.6V36h1.4v-7.2l0.7-0.4l0.7,0.4V36h1.4v-6.4l1,0.6c0.4,0.2,0.8,0.3,1.2,0.4c0.4,0,0.8,0,1.2-0.2
	c0.2-0.1,0.5-0.1,0.7,0c0.2,0.1,0.4,0.2,0.6,0.4c0.1,0.2,0.2,0.4,0.3,0.6c0,0.1,0,0.2,0.1,0.2c0.1,0.1,0.1,0.1,0.2,0.1l3.3,0.6
	c0,0,0.1,0,0.1,0c0,0,0.1-0.1,0.1-0.1s0-0.1,0-0.1c0,0,0-0.1-0.1-0.1l-2.2-2.5c-0.1-0.1-0.1-0.1-0.2-0.1c-0.1,0-0.2,0-0.2,0
	c-0.2,0.1-0.5,0.1-0.7,0.1c-0.2,0-0.4-0.1-0.6-0.3c-0.2-0.2-0.3-0.4-0.3-0.6c-0.1-0.4-0.2-0.8-0.5-1.2c-0.2-0.3-0.6-0.6-0.9-0.8
	l-1-0.6l5.5-3.2l-0.7-1.2l-6.2,3.6l-0.7-0.4v-0.9l6.2-3.6l-0.7-1.2l-5.5,3.2v-1.1c0-0.4-0.1-0.8-0.3-1.2c-0.2-0.4-0.4-0.7-0.8-1
	c-0.2-0.2-0.3-0.4-0.4-0.6c-0.1-0.2,0-0.5,0-0.7c0.1-0.2,0.2-0.4,0.4-0.5c0.1,0,0.1-0.1,0.1-0.2c0-0.1,0-0.2,0-0.2l-1.1-3.1
	c0,0,0-0.1-0.1-0.1c0,0-0.1,0-0.1,0c0,0-0.1,0-0.1,0c0,0-0.1,0.1-0.1,0.1l-1.1,3.1C40.9,16.8,40.9,16.8,40.9,16.9z M29,26
	c0-7.3,5.9-13.3,13.3-13.3c7.3,0,13.3,5.9,13.3,13.3c0,7.3-5.9,13.3-13.3,13.3C34.9,39.2,29,33.3,29,26z"/>
<polyline points="132.3,39 132.3,12.9 136.9,12.9 136.9,22.9 141.9,22.9 141.9,12.9 146.5,12.9 146.5,39 141.9,39 141.9,27.5 
	136.9,27.5 136.9,39 132.3,39 "/>
<polyline points="65.6,28.9 60.5,12.9 65.1,12.9 68.2,23.1 71.7,12.9 75.9,12.9 70.7,28.4 70.7,39 65.6,39 65.6,28.9 "/>
<polyline points="92.7,39 96.8,39 96.8,19.3 100.3,36.4 104.1,36.4 107.2,19.1 107.2,39 112,39 112,12.9 104.5,12.9 102.4,25.3 
	99.8,12.9 92.7,12.9 92.7,39 "/>
<path d="M158.4,28.6l-1.9-11.6l-1.9,11.6H158.4 M153.4,12.9h7.1l4.3,26h-4.6l-1-6.1h-5.3l-1,6.1h-4.2L153.4,12.9z"/>
<path d="M120,28.6h3.8l-1.9-11.6L120,28.6 M118.8,12.9h7.1l4.3,26h-4.6l-1-6.1h-5.3l-1,6.1H114L118.8,12.9z"/>
<path d="M80.4,28.6h3.8l-1.9-11.6L80.4,28.6 M74.4,39l4.8-26h7.1l4.3,26h-4.6l-1-6.1h-5.3l-1,6.1H74.4z"/>
</svg>
